# xmcd
#
# Track frame offsets:
#	150
#	13033
#	34712
#	54820
#	70698
#	88640
#	110763
#	124725
#	142387
#	167173
#	181205
#	201508
#	219903
#	244068
#
# Disc length: 3577 seconds
#
# Revision: 0
# Processed by: cddbd v1.5.2PL0 Copyright (c) Steve Scherf et al.
# Submitted via: EasyCDDAExtractor 16.0.6.1
#
DISCID=c80df70e
DTITLE=Άνευ ερμηνευτού - Ισημερία-κλ. Βασ. Σαλέας
DYEAR=1999
DGENRE=Οργανική κλαρίνο
TTITLE0=Στη συγκέντρωση της Ε.Φ.Ε.Ε. [Διονύσης Σαββόπουλος]
TTITLE1=Τους ξανάδα [Σταμάτης Κραουνάκης]
TTITLE2=Δίας [Γιάννης Ιωάννου]
TTITLE3=Πάπιγκο [Βασίλης Σαλέας]
TTITLE4=Όστρια [Μιχάλης Νικολούδης]
TTITLE5=Ζεϊμπέκικο [Διονύσης Σαββόπουλος]
TTITLE6=Τσάμικο [Βασίλης Σαλέας]
TTITLE7=Παιχνίδια της Άνοιξης [Γιώργος Καζαντζής]
TTITLE8=Πάροδος [Σταμάτης Κραουνάκης]
TTITLE9=Μιά θάλασσα μικρή [Διονύσης Σαββόπουλος]
TTITLE10=Ιανός [Γιάννης Ιωάννου]
TTITLE11=Πέτρα [Βασίλης Σαλέας]
TTITLE12=Βασίλειος [Σταμάτης Κραουνάκης]
TTITLE13=Η παραλία των ονείρων σου [Βασίλης Σαλέας]
EXTD=
EXTT0=
EXTT1=
EXTT2=
EXTT3=
EXTT4=
EXTT5=
EXTT6=
EXTT7=
EXTT8=
EXTT9=
EXTT10=
EXTT11=
EXTT12=
EXTT13=
PLAYORDER=
